<svg width="61" height="60" viewBox="0 0 61 60" fill="none" xmlns="http://www.w3.org/2000/svg">
<path d="M59.4286 30C59.4286 45.9768 46.4768 58.9286 30.5 58.9286C14.5232 58.9286 1.57143 45.9768 1.57143 30C1.57143 14.0232 14.5232 1.07143 30.5 1.07143C46.4768 1.07143 59.4286 14.0232 59.4286 30Z" stroke="white" stroke-width="2.14286"/>
<path d="M30.5003 2.14287C20.476 6.42948 13.3574 17.2853 13.3574 30C13.3574 42.7147 20.476 53.5705 30.5003 57.8572" stroke="white" stroke-width="2.14286"/>
<path d="M30.4997 2.14287C40.524 6.42948 47.6426 17.2853 47.6426 30C47.6426 42.7147 40.524 53.5705 30.4997 57.8572" stroke="white" stroke-width="2.14286"/>
<path d="M30.5 2.14287V58.9286" stroke="white" stroke-width="2.14286"/>
<path d="M1.57129 30H59.4284" stroke="white" stroke-width="2.14286"/>
<path d="M6.92871 12.8571H54.0716" stroke="white" stroke-width="2.14286"/>
<path d="M6.92871 47.1429H54.0716" stroke="white" stroke-width="2.14286"/>
</svg>
