<svg width="456" height="128" viewBox="0 0 456 128" fill="none" xmlns="http://www.w3.org/2000/svg">
<path d="M53.5049 99L46.5305 91.8796L53.2102 85.0602L57.7289 81.149L57.6307 80.7478L49.2809 81.3496H26V29H36.4126V70.7192H49.2809L57.6307 71.3209L57.7289 70.9198L53.2102 67.0086L46.5305 60.1891L53.5049 53.0688L76 76.0344L53.5049 99Z" fill="black"/>
<path d="M89 90.7296H105.896V59.4121H89V49.3386H118.618V90.7296H134.362V100.803H89.0397L89 90.7296ZM104.107 34.8766V32.4829C104.107 28.8924 106.294 26 112.257 26C118.221 26 120.408 28.8924 120.408 32.4829V34.8766C120.408 38.4672 118.221 41.3596 112.257 41.3596C106.294 41.3596 104.107 38.4672 104.107 34.8766Z" fill="black"/>
<path d="M146.349 100.803V49.3385H159.071V58.4146H159.568C161.854 52.8293 166.227 48.1416 174.576 48.1416C184.614 48.1416 191.571 55.1232 191.571 67.5904V100.803H178.849V69.3857C178.849 62.0051 175.569 58.2151 169.208 58.2151C164.04 58.2151 159.071 60.908 159.071 66.3936V100.803H146.349Z" fill="black"/>
<path d="M238.583 91.7271H237.887C235.104 97.9108 230.433 102 222.581 102C210.853 102 203.001 93.2231 203.001 75.0709C203.001 56.9187 210.853 48.1418 222.581 48.1418C230.433 48.1418 235.104 52.231 237.887 58.4147H238.583V26.9974H251.305V100.803H238.583V91.7271ZM238.583 83.1496V66.9922C238.583 61.1077 233.713 58.315 227.948 58.315C220.593 58.315 216.32 63.2021 216.32 70.9817V79.1601C216.32 86.9397 220.593 91.8268 227.948 91.8268C233.753 91.8268 238.583 89.0342 238.583 83.1496Z" fill="black"/>
<path d="M263.63 75.1705C263.63 58.5143 273.171 48.1416 288.179 48.1416C302.988 48.1416 312.331 58.4146 312.331 73.9736V78.1626H276.352V79.4592C276.352 86.8398 281.222 91.9264 289.571 91.9264C292.294 91.9976 294.991 91.3876 297.42 90.1513C299.85 88.9151 301.934 87.0915 303.485 84.845L310.741 92.1258C307.063 97.5117 300.007 102 289.173 102C272.774 102 263.63 91.6271 263.63 75.1705ZM276.352 69.8844V70.5825H299.609V69.6849C299.609 62.3043 295.236 57.5169 288.279 57.5169C281.122 57.5169 276.352 62.5038 276.352 69.8844Z" fill="black"/>
<path d="M325.242 100.803V49.3385H337.964V58.4146H338.461C340.757 52.8293 345.13 48.1416 353.479 48.1416C363.517 48.1416 370.475 55.1232 370.475 67.5904V100.803H357.753V69.3857C357.753 62.0051 354.473 58.2151 348.112 58.2151C342.944 58.2151 337.964 60.908 337.964 66.3936V100.803H325.242Z" fill="black"/>
<path d="M410.718 100.803C400.978 100.803 396.406 95.0183 396.406 86.8398V59.412H381.497V49.3385H391.635C395.71 49.3385 397.3 47.9422 397.3 43.6535V31.1863H409.128V49.3385H430V59.412H409.128V90.7296H430V100.803H410.718Z" fill="black"/>
</svg>
