<svg width="100" height="22" viewBox="0 0 100 22" fill="none" xmlns="http://www.w3.org/2000/svg">
<path d="M98.2612 0H96.2345L95.9478 2.01695H97.9744L98.2612 0Z" fill="white"/>
<path d="M99.9998 2.01697H97.9743L97.6875 4.03392H99.713L99.9998 2.01697Z" fill="white"/>
<path d="M97.6875 4.03391H95.6609L95.9477 2.01695H93.921L94.2078 0H90.1546L88.7207 10.0836H92.7728L93.0607 8.06669H93.0596H93.0607H95.0862L95.3741 6.04974H97.3996L97.6875 4.03391Z" fill="white"/>
<path d="M92.6936 10.7039H92.6756C90.046 10.7039 88.4439 11.9748 88.0985 14.4614L88.0894 14.5165C87.7259 17.0121 88.9814 18.3009 91.6018 18.3009H91.6199C94.2404 18.3009 95.8425 17.0121 96.197 14.5165L96.2061 14.4614C96.5606 11.9736 95.3141 10.7039 92.6936 10.7039Z" fill="white"/>
<path d="M97.1127 8.06677H95.0861L94.7993 10.0837H96.8259L97.1127 8.06677Z" fill="white"/>
<path d="M63.9937 4.59691L63.5059 8.0218H62.9075C62.4525 5.56663 61.0029 4.29578 58.4275 4.29578H58.3846C55.0088 4.29578 52.6277 6.6869 52.0225 10.8646L51.9796 11.1658C51.3519 15.4514 53.0183 17.9931 56.3512 17.9931H56.3941C59.0124 17.9931 60.9825 16.5717 62.0212 14.2457H62.6208L62.1296 17.6919H68.8361L70.699 4.59691H63.9937ZM62.2166 11.1017L62.2132 11.1253C62.0811 12.2332 61.4861 12.8052 60.5129 12.8052H60.5061C59.5329 12.8052 59.0654 12.2332 59.2009 11.1253L59.2043 11.1017C59.333 9.9983 59.928 9.43423 60.9046 9.43423H60.9114C61.8846 9.43423 62.3475 9.9983 62.2166 11.1017Z" fill="white"/>
<path d="M81.029 4.59686L80.3143 9.63644C80.1631 10.541 79.795 10.8859 79.1672 10.8859H79.1458C78.5835 10.8859 78.3239 10.4983 78.4537 9.57239L79.1684 4.59686H71.378L70.5775 10.2612C70.0153 14.3322 71.3137 16.012 74.5596 16.012H74.6025C77.3947 16.012 78.8477 14.6985 79.3242 12.7815H79.8831L79.3851 16.2705C79.2768 17.0885 78.8872 17.3908 78.2166 17.3908H78.1737C77.6329 17.3908 77.3518 17.2188 77.3518 16.8087L69.5388 16.7874C69.4733 20.2122 72.0487 22 77.6103 22H77.6318C83.4531 22 86.6776 19.7392 87.2839 15.4525L88.8205 4.59799H81.029V4.59686Z" fill="white"/>
<path d="M37.9189 11.0422C38.5252 6.79929 36.9016 4.30029 33.5258 4.30029H33.4829C30.8861 4.30029 28.8945 5.70036 27.9427 8.02632H27.3488L27.8366 4.59581H21.0409L18.5649 21.9978L25.3606 21.9989L26.4332 14.4221H26.9469C27.315 16.9425 28.873 17.9976 31.4484 17.9976H31.4913C34.954 17.9976 37.2697 15.4559 37.8748 11.3422L37.9189 11.0422ZM30.8635 11.1074L30.8601 11.1321C30.728 12.24 30.133 12.8119 29.1598 12.8119H29.153C28.1798 12.8119 27.7135 12.24 27.8479 11.1321L27.8513 11.1074C27.98 10.0039 28.575 9.43987 29.5516 9.43987H29.5584C30.5327 9.43987 30.9956 10.0039 30.8635 11.1074Z" fill="white"/>
<path d="M51.2617 4.29462C48.8162 4.29462 47.3643 5.72053 46.2601 8.67124H45.6549L46.2341 4.59688H39.5084L37.6455 17.6908H45.4347L45.9789 13.8614C46.2601 11.9444 47.5155 11.0399 49.5286 11.0399C50.1123 11.0399 50.8191 11.1107 51.5123 11.2613L52.4765 4.49238C52.087 4.3272 51.6297 4.29462 51.2617 4.29462Z" fill="white"/>
<path d="M19.3337 11.8242C19.7447 8.9814 18.0139 7.02176 13.404 6.71949L10.7418 6.56892C9.50886 6.46105 9.16224 6.26779 9.1837 5.81496C9.1837 5.81496 9.13176 5.10706 10.4392 5.12616H10.4606C11.3052 5.12616 11.7635 5.40595 11.7534 6.09025L19.6589 6.09137C19.7842 2.63839 17.0181 6.10352e-05 11.0229 6.10352e-05H10.98C5.00739 6.10352e-05 1.61012 2.2395 1.06819 6.05205L1.04673 6.20261C0.614313 9.23984 2.51787 11.0916 6.26288 11.3074L9.5958 11.5231C10.8073 11.6096 11.1968 11.7815 11.1753 12.1905C11.1753 12.1905 11.1787 12.8771 9.76854 12.8793H9.74709C8.41031 12.849 8.38434 12.2524 8.34934 11.949H0.0114078C-0.21327 15.5154 2.88593 18.0054 8.85966 18.0054H8.90257C14.8752 18.0054 18.7489 15.8087 19.3123 11.9748L19.3337 11.8242Z" fill="white"/>
</svg>
